<svg width="48" height="48" viewBox="0 0 48 48" fill="none" xmlns="http://www.w3.org/2000/svg">
<rect width="48" height="48" rx="24" fill="#EAEAEA"/>
<path d="M29 15.5001C29 15.3674 28.9473 15.2403 28.8536 15.1465C28.7598 15.0527 28.6326 15.0001 28.5 15.0001H26C24.7411 14.9373 23.5086 15.3754 22.5717 16.2186C21.6348 17.0618 21.0698 18.2415 21 19.5001V22.2001H18.5C18.3674 22.2001 18.2402 22.2527 18.1464 22.3465C18.0527 22.4403 18 22.5674 18 22.7001V25.3001C18 25.4327 18.0527 25.5598 18.1464 25.6536C18.2402 25.7474 18.3674 25.8001 18.5 25.8001H21V32.5001C21 32.6327 21.0527 32.7598 21.1464 32.8536C21.2402 32.9474 21.3674 33.0001 21.5 33.0001H24.5C24.6326 33.0001 24.7598 32.9474 24.8536 32.8536C24.9473 32.7598 25 32.6327 25 32.5001V25.8001H27.62C27.7312 25.8017 27.8397 25.7661 27.9285 25.6991C28.0172 25.6321 28.0811 25.5374 28.11 25.4301L28.83 22.8301C28.8499 22.7562 28.8526 22.6787 28.8378 22.6036C28.8231 22.5286 28.7913 22.4579 28.7449 22.397C28.6985 22.3362 28.6388 22.2868 28.5704 22.2526C28.5019 22.2185 28.4265 22.2005 28.35 22.2001H25V19.5001C25.0249 19.2525 25.1411 19.0232 25.326 18.8567C25.5109 18.6903 25.7512 18.5988 26 18.6001H28.5C28.6326 18.6001 28.7598 18.5474 28.8536 18.4536C28.9473 18.3598 29 18.2327 29 18.1001V15.5001Z" fill="#222222"/>
</svg>
