<svg width="48" height="48" viewBox="0 0 48 48" fill="none" xmlns="http://www.w3.org/2000/svg">
<rect width="48" height="48" rx="24" fill="#EAEAEA"/>
<path d="M27.15 20.3999C26.3836 20.3973 25.6241 20.5458 24.9151 20.837C24.2062 21.1282 23.5615 21.5563 23.0182 22.0969C22.4748 22.6375 22.0434 23.2799 21.7486 23.9873C21.4538 24.6948 21.3013 25.4535 21.3 26.2199V32.0999C21.3 32.3386 21.3948 32.5676 21.5636 32.7363C21.7324 32.9051 21.9613 32.9999 22.2 32.9999H24.3C24.5387 32.9999 24.7676 32.9051 24.9364 32.7363C25.1052 32.5676 25.2 32.3386 25.2 32.0999V26.2199C25.1998 25.9473 25.2571 25.6778 25.3681 25.4288C25.479 25.1798 25.6412 24.957 25.8441 24.7749C26.0469 24.5928 26.2859 24.4555 26.5454 24.3719C26.8048 24.2884 27.079 24.2604 27.35 24.2899C27.836 24.3512 28.2827 24.5886 28.6052 24.9572C28.9278 25.3259 29.1039 25.8001 29.1 26.2899V32.0999C29.1 32.3386 29.1948 32.5676 29.3636 32.7363C29.5324 32.9051 29.7613 32.9999 30 32.9999H32.1C32.3387 32.9999 32.5676 32.9051 32.7364 32.7363C32.9052 32.5676 33 32.3386 33 32.0999V26.2199C32.9987 25.4535 32.8463 24.6948 32.5515 23.9873C32.2566 23.2799 31.8252 22.6375 31.2818 22.0969C30.7385 21.5563 30.0939 21.1282 29.3849 20.837C28.6759 20.5458 27.9165 20.3973 27.15 20.3999Z" fill="#222222"/>
<path d="M18.6 21.3H15.9C15.4029 21.3 15 21.703 15 22.2V32.1C15 32.5971 15.4029 33 15.9 33H18.6C19.0971 33 19.5 32.5971 19.5 32.1V22.2C19.5 21.703 19.0971 21.3 18.6 21.3Z" fill="#222222"/>
<path d="M17.25 19.5C18.4926 19.5 19.5 18.4926 19.5 17.25C19.5 16.0074 18.4926 15 17.25 15C16.0074 15 15 16.0074 15 17.25C15 18.4926 16.0074 19.5 17.25 19.5Z" fill="#222222"/>
</svg>
