<svg width="277" height="56" viewBox="0 0 277 56" fill="none" xmlns="http://www.w3.org/2000/svg">
<path d="M78.27 21.45V26.7H85.32V30.03H78.27V35.58H86.22V39H74.07V18.03H86.22V21.45H78.27ZM89.5568 30.63C89.5568 28.95 89.8868 27.46 90.5468 26.16C91.2268 24.86 92.1468 23.86 93.3068 23.16C94.4668 22.46 95.7568 22.11 97.1768 22.11C98.2568 22.11 99.2868 22.35 100.267 22.83C101.247 23.29 102.027 23.91 102.607 24.69V16.8H106.867V39H102.607V36.54C102.087 37.36 101.357 38.02 100.417 38.52C99.4768 39.02 98.3868 39.27 97.1468 39.27C95.7468 39.27 94.4668 38.91 93.3068 38.19C92.1468 37.47 91.2268 36.46 90.5468 35.16C89.8868 33.84 89.5568 32.33 89.5568 30.63ZM102.637 30.69C102.637 29.67 102.437 28.8 102.037 28.08C101.637 27.34 101.097 26.78 100.417 26.4C99.7368 26 99.0068 25.8 98.2268 25.8C97.4468 25.8 96.7268 25.99 96.0668 26.37C95.4068 26.75 94.8668 27.31 94.4468 28.05C94.0468 28.77 93.8468 29.63 93.8468 30.63C93.8468 31.63 94.0468 32.51 94.4468 33.27C94.8668 34.01 95.4068 34.58 96.0668 34.98C96.7468 35.38 97.4668 35.58 98.2268 35.58C99.0068 35.58 99.7368 35.39 100.417 35.01C101.097 34.61 101.637 34.05 102.037 33.33C102.437 32.59 102.637 31.71 102.637 30.69ZM127.259 22.38V39H123.029V36.9C122.489 37.62 121.779 38.19 120.899 38.61C120.039 39.01 119.099 39.21 118.079 39.21C116.779 39.21 115.629 38.94 114.629 38.4C113.629 37.84 112.839 37.03 112.259 35.97C111.699 34.89 111.419 33.61 111.419 32.13V22.38H115.619V31.53C115.619 32.85 115.949 33.87 116.609 34.59C117.269 35.29 118.169 35.64 119.309 35.64C120.469 35.64 121.379 35.29 122.039 34.59C122.699 33.87 123.029 32.85 123.029 31.53V22.38H127.259ZM152.643 22.14C154.683 22.14 156.323 22.77 157.563 24.03C158.823 25.27 159.453 27.01 159.453 29.25V39H155.253V29.82C155.253 28.52 154.923 27.53 154.263 26.85C153.603 26.15 152.703 25.8 151.563 25.8C150.423 25.8 149.513 26.15 148.833 26.85C148.173 27.53 147.843 28.52 147.843 29.82V39H143.643V29.82C143.643 28.52 143.313 27.53 142.653 26.85C141.993 26.15 141.093 25.8 139.953 25.8C138.793 25.8 137.873 26.15 137.193 26.85C136.533 27.53 136.203 28.52 136.203 29.82V39H132.003V22.38H136.203V24.39C136.743 23.69 137.433 23.14 138.273 22.74C139.133 22.34 140.073 22.14 141.093 22.14C142.393 22.14 143.553 22.42 144.573 22.98C145.593 23.52 146.383 24.3 146.943 25.32C147.483 24.36 148.263 23.59 149.283 23.01C150.323 22.43 151.443 22.14 152.643 22.14ZM162.958 30.63C162.958 28.95 163.288 27.46 163.948 26.16C164.628 24.86 165.538 23.86 166.678 23.16C167.838 22.46 169.128 22.11 170.548 22.11C171.788 22.11 172.868 22.36 173.788 22.86C174.728 23.36 175.478 23.99 176.038 24.75V22.38H180.268V39H176.038V36.57C175.498 37.35 174.748 38 173.788 38.52C172.848 39.02 171.758 39.27 170.518 39.27C169.118 39.27 167.838 38.91 166.678 38.19C165.538 37.47 164.628 36.46 163.948 35.16C163.288 33.84 162.958 32.33 162.958 30.63ZM176.038 30.69C176.038 29.67 175.838 28.8 175.438 28.08C175.038 27.34 174.498 26.78 173.818 26.4C173.138 26 172.408 25.8 171.628 25.8C170.848 25.8 170.128 25.99 169.468 26.37C168.808 26.75 168.268 27.31 167.848 28.05C167.448 28.77 167.248 29.63 167.248 30.63C167.248 31.63 167.448 32.51 167.848 33.27C168.268 34.01 168.808 34.58 169.468 34.98C170.148 35.38 170.868 35.58 171.628 35.58C172.408 35.58 173.138 35.39 173.818 35.01C174.498 34.61 175.038 34.05 175.438 33.33C175.838 32.59 176.038 31.71 176.038 30.69ZM194.18 22.14C196.16 22.14 197.76 22.77 198.98 24.03C200.2 25.27 200.81 27.01 200.81 29.25V39H196.61V29.82C196.61 28.5 196.28 27.49 195.62 26.79C194.96 26.07 194.06 25.71 192.92 25.71C191.76 25.71 190.84 26.07 190.16 26.79C189.5 27.49 189.17 28.5 189.17 29.82V39H184.97V22.38H189.17V24.45C189.73 23.73 190.44 23.17 191.3 22.77C192.18 22.35 193.14 22.14 194.18 22.14ZM204.324 30.63C204.324 28.95 204.654 27.46 205.314 26.16C205.994 24.86 206.904 23.86 208.044 23.16C209.204 22.46 210.494 22.11 211.914 22.11C213.154 22.11 214.234 22.36 215.154 22.86C216.094 23.36 216.844 23.99 217.404 24.75V22.38H221.634V39H217.404V36.57C216.864 37.35 216.114 38 215.154 38.52C214.214 39.02 213.124 39.27 211.884 39.27C210.484 39.27 209.204 38.91 208.044 38.19C206.904 37.47 205.994 36.46 205.314 35.16C204.654 33.84 204.324 32.33 204.324 30.63ZM217.404 30.69C217.404 29.67 217.204 28.8 216.804 28.08C216.404 27.34 215.864 26.78 215.184 26.4C214.504 26 213.774 25.8 212.994 25.8C212.214 25.8 211.494 25.99 210.834 26.37C210.174 26.75 209.634 27.31 209.214 28.05C208.814 28.77 208.614 29.63 208.614 30.63C208.614 31.63 208.814 32.51 209.214 33.27C209.634 34.01 210.174 34.58 210.834 34.98C211.514 35.38 212.234 35.58 212.994 35.58C213.774 35.58 214.504 35.39 215.184 35.01C215.864 34.61 216.404 34.05 216.804 33.33C217.204 32.59 217.404 31.71 217.404 30.69ZM232.846 22.11C234.086 22.11 235.176 22.36 236.116 22.86C237.056 23.34 237.796 23.97 238.336 24.75V22.38H242.566V39.12C242.566 40.66 242.256 42.03 241.636 43.23C241.016 44.45 240.086 45.41 238.846 46.11C237.606 46.83 236.106 47.19 234.346 47.19C231.986 47.19 230.046 46.64 228.526 45.54C227.026 44.44 226.176 42.94 225.976 41.04H230.146C230.366 41.8 230.836 42.4 231.556 42.84C232.296 43.3 233.186 43.53 234.226 43.53C235.446 43.53 236.436 43.16 237.196 42.42C237.956 41.7 238.336 40.6 238.336 39.12V36.54C237.796 37.32 237.046 37.97 236.086 38.49C235.146 39.01 234.066 39.27 232.846 39.27C231.446 39.27 230.166 38.91 229.006 38.19C227.846 37.47 226.926 36.46 226.246 35.16C225.586 33.84 225.256 32.33 225.256 30.63C225.256 28.95 225.586 27.46 226.246 26.16C226.926 24.86 227.836 23.86 228.976 23.16C230.136 22.46 231.426 22.11 232.846 22.11ZM238.336 30.69C238.336 29.67 238.136 28.8 237.736 28.08C237.336 27.34 236.796 26.78 236.116 26.4C235.436 26 234.706 25.8 233.926 25.8C233.146 25.8 232.426 25.99 231.766 26.37C231.106 26.75 230.566 27.31 230.146 28.05C229.746 28.77 229.546 29.63 229.546 30.63C229.546 31.63 229.746 32.51 230.146 33.27C230.566 34.01 231.106 34.58 231.766 34.98C232.446 35.38 233.166 35.58 233.926 35.58C234.706 35.58 235.436 35.39 236.116 35.01C236.796 34.61 237.336 34.05 237.736 33.33C238.136 32.59 238.336 31.71 238.336 30.69ZM262.718 30.33C262.718 30.93 262.678 31.47 262.598 31.95H250.448C250.548 33.15 250.968 34.09 251.708 34.77C252.448 35.45 253.358 35.79 254.438 35.79C255.998 35.79 257.108 35.12 257.768 33.78H262.298C261.818 35.38 260.898 36.7 259.538 37.74C258.178 38.76 256.508 39.27 254.528 39.27C252.928 39.27 251.488 38.92 250.208 38.22C248.948 37.5 247.958 36.49 247.238 35.19C246.538 33.89 246.188 32.39 246.188 30.69C246.188 28.97 246.538 27.46 247.238 26.16C247.938 24.86 248.918 23.86 250.178 23.16C251.438 22.46 252.888 22.11 254.528 22.11C256.108 22.11 257.518 22.45 258.758 23.13C260.018 23.81 260.988 24.78 261.668 26.04C262.368 27.28 262.718 28.71 262.718 30.33ZM258.368 29.13C258.348 28.05 257.958 27.19 257.198 26.55C256.438 25.89 255.508 25.56 254.408 25.56C253.368 25.56 252.488 25.88 251.768 26.52C251.068 27.14 250.638 28.01 250.478 29.13H258.368ZM270.584 24.96C271.124 24.08 271.824 23.39 272.684 22.89C273.564 22.39 274.564 22.14 275.684 22.14V26.55H274.574C273.254 26.55 272.254 26.86 271.574 27.48C270.914 28.1 270.584 29.18 270.584 30.72V39H266.384V22.38H270.584V24.96Z" fill="#ED9526"/>
<rect width="56" height="56" rx="28" fill="#ED9526"/>
<g clip-path="url(#clip0_16_1310)">
<path d="M12 12H44V44H12V12Z" fill="white"/>
</g>
<defs>
<clipPath id="clip0_16_1310">
<rect width="32" height="32" fill="white" transform="translate(12 12)"/>
</clipPath>
</defs>
</svg>
